<?xml version="1.0" ?><svg id="Layer_1_1_" style="enable-background:new 0 0 64 64;" version="1.1" viewBox="0 0 64 64" xml:space="preserve" xmlns="http://www.w3.org/2000/svg" xmlns:xlink="http://www.w3.org/1999/xlink"><g><g><path d="M51.314,14.929l-4.243-4.243l-2.331,1.399c-0.351-0.168-0.711-0.318-1.081-0.448L43,9h-6    l-0.659,2.637c-0.37,0.131-0.73,0.281-1.081,0.448l-2.331-1.399l-4.243,4.243l1.399,2.331c-0.168,0.351-0.318,0.711-0.448,1.081    L27,19v6l2.637,0.659c0.131,0.37,0.281,0.73,0.448,1.081l-1.399,2.331l4.243,4.243l2.331-1.399    c0.351,0.168,0.711,0.318,1.081,0.448L37,35h6l0.659-2.637c0.37-0.131,0.73-0.281,1.081-0.448l2.331,1.399l4.243-4.243    l-1.399-2.331c0.168-0.351,0.318-0.711,0.448-1.081L53,25v-6l-2.637-0.659c-0.131-0.37-0.281-0.73-0.448-1.081L51.314,14.929z" style="fill:#FFCB57;"/></g><g><rect height="4" style="fill:#E56565;" width="2" x="39" y="2"/></g><g><rect height="20" style="fill:#E56565;" width="2" x="39" y="42"/></g><g><rect height="2" style="fill:#E56565;" width="2" x="39" y="38"/></g><g><path d="M55.122,8.512C51.05,3.738,44.899,1,38.249,1h-6.468c-3.475,0-6.685,0.699-9.542,2.079    C14.689,6.723,10,14.16,10,22.485c0,2.564-1.148,4.953-3.15,6.554l-2.178,1.742l0.486,0.758c3.348,5.222,5.831,10.915,7.38,16.921    l0.312,1.209c0.537,2.084,1.875,3.775,3.67,4.64c1.987,0.959,4.326,0.91,6.271-0.143l14.699-8.296l-0.982-1.742l-14.684,8.287    c-1.366,0.74-3.024,0.774-4.436,0.093c-1.264-0.609-2.213-1.826-2.603-3.339l-0.312-1.209c-0.083-0.322-0.179-0.64-0.267-0.961H17    v-2h-3.379c-1.515-4.839-3.62-9.461-6.299-13.777L8.1,30.601c2.479-1.983,3.9-4.941,3.9-8.116c0-7.552,4.257-14.297,11.108-17.605    C25.692,3.632,28.61,3,31.781,3h6.468c6.063,0,11.659,2.482,15.352,6.81c3.589,4.206,5.062,9.668,4.152,15.38    c-0.399,2.502-1.263,4.848-2.564,6.973C49.831,40.906,47,50.443,47,59.743V61H29v-8h-2v10h22v-3.257    c0-8.931,2.729-18.106,7.894-26.535c1.439-2.35,2.394-4.941,2.834-7.703C60.732,19.205,59.097,13.17,55.122,8.512z" style="fill:#3F3A34;"/><rect height="2" style="fill:#3F3A34;" width="6" x="15" y="26"/><path d="M46,22c0-3.309-2.691-6-6-6s-6,2.691-6,6s2.691,6,6,6S46,25.309,46,22z M40,26    c-2.206,0-4-1.794-4-4s1.794-4,4-4s4,1.794,4,4S42.206,26,40,26z" style="fill:#3F3A34;"/><path d="M35.326,33.041c0.057,0.024,0.114,0.049,0.171,0.071L36.219,36h7.562l0.722-2.888    c0.057-0.022,0.114-0.047,0.171-0.071l2.553,1.531l5.346-5.347l-1.53-2.552c0.023-0.057,0.047-0.114,0.07-0.171L54,25.781v-7.562    l-2.888-0.722c-0.092-0.227-0.19-0.451-0.296-0.669l-1.803,0.864c0.152,0.318,0.288,0.646,0.407,0.982l0.179,0.506l2.4,0.6v4.438    l-2.4,0.6l-0.179,0.506c-0.119,0.336-0.255,0.664-0.407,0.982l-0.233,0.485l1.274,2.123l-3.139,3.138l-2.122-1.273l-0.484,0.231    c-0.32,0.153-0.646,0.289-0.982,0.407l-0.508,0.179L42.219,34h-4.438l-0.601-2.401l-0.508-0.179    c-0.336-0.118-0.662-0.254-0.982-0.407l-0.484-0.231l-2.122,1.273l-3.69-3.69l-1.414,1.414l4.794,4.794L35.326,33.041z" style="fill:#3F3A34;"/><path d="M26,18.219v7.562l2.888,0.722c0.092,0.227,0.19,0.451,0.296,0.669l1.803-0.864    c-0.152-0.318-0.288-0.646-0.407-0.982L30.4,24.819l-2.4-0.6v-4.438l2.4-0.6l0.179-0.506c0.119-0.336,0.255-0.664,0.407-0.982    l0.232-0.485l-1.273-2.123l3.139-3.139l2.122,1.273l0.484-0.231c0.32-0.153,0.646-0.289,0.982-0.407l0.508-0.179L37.781,10h4.438    l0.601,2.401l0.508,0.179c0.336,0.118,0.662,0.254,0.982,0.407l0.484,0.231l2.122-1.273l3.69,3.69l1.414-1.414l-4.794-4.795    l-2.553,1.532c-0.057-0.024-0.114-0.048-0.171-0.071L43.781,8h-7.562l-0.722,2.887c-0.057,0.023-0.114,0.047-0.171,0.071    l-2.553-1.532l-5.346,5.347l1.53,2.553c-0.023,0.057-0.047,0.114-0.07,0.171L26,18.219z" style="fill:#3F3A34;"/><rect height="2" style="fill:#3F3A34;" width="2" x="39" y="12"/><rect height="2" style="fill:#3F3A34;" transform="matrix(0.7072 -0.707 0.707 0.7072 -1.2068 28.3577)" width="2" x="32.636" y="14.636"/><rect height="2" style="fill:#3F3A34;" width="2" x="30" y="21"/><rect height="2" style="fill:#3F3A34;" transform="matrix(0.707 -0.7072 0.7072 0.707 -10.2041 32.0993)" width="2" x="32.636" y="27.364"/><rect height="2" style="fill:#3F3A34;" width="2" x="39" y="30"/><rect height="2" style="fill:#3F3A34;" transform="matrix(0.7072 -0.707 0.707 0.7072 -6.4788 41.083)" width="2" x="45.364" y="27.364"/><rect height="2" style="fill:#3F3A34;" width="2" x="48" y="21"/><rect height="2" style="fill:#3F3A34;" transform="matrix(0.707 -0.7072 0.7072 0.707 2.5272 37.3717)" width="2" x="45.364" y="14.636"/></g></g></svg>